<?xml version="1.0" encoding="UTF-8" ?>
<!DOCTYPE svg PUBLIC "-//W3C//DTD SVG 1.1//EN" "http://www.w3.org/Graphics/SVG/1.1/DTD/svg11.dtd">
<svg width="1084pt" height="403pt" viewBox="0 0 1084 403" version="1.1" xmlns="http://www.w3.org/2000/svg">
<g id="#040203ff">
<path fill="#040203" opacity="1.00" d=" M 202.38 83.32 C 207.89 78.71 211.95 72.62 217.68 68.26 C 218.04 77.98 218.10 87.71 217.67 97.42 C 217.18 88.50 216.92 79.56 216.71 70.63 C 209.10 78.54 201.95 87.05 192.52 92.92 C 195.31 89.24 198.85 86.26 202.38 83.32 Z" />
<path fill="#040203" opacity="1.00" d=" M 206.98 84.01 L 208.02 84.01 C 208.06 108.12 207.76 132.24 208.33 156.35 C 205.48 132.35 207.64 108.11 206.98 84.01 Z" />
<path fill="#040203" opacity="1.00" d=" M 789.34 87.42 C 797.75 85.53 808.43 84.04 815.05 90.91 C 818.96 95.65 820.54 101.85 824.25 106.74 C 827.12 110.51 830.02 114.26 832.60 118.24 C 834.62 116.74 836.78 115.28 838.22 113.16 C 843.04 106.29 849.96 101.23 857.31 97.35 C 861.35 95.22 864.56 91.92 868.27 89.31 C 871.92 87.72 877.03 86.90 880.48 89.53 C 886.70 93.92 891.22 100.14 896.41 105.60 C 900.44 109.77 903.74 114.96 909.12 117.54 C 912.03 117.20 914.91 116.17 917.74 115.31 C 915.63 118.82 914.76 122.94 912.28 126.24 C 906.85 134.07 901.93 142.38 895.06 149.07 C 891.93 152.11 889.74 155.92 886.88 159.18 C 885.11 145.58 873.19 137.33 863.00 129.96 C 858.70 127.36 853.33 129.32 848.60 129.53 C 855.90 133.40 863.78 136.47 870.08 141.97 C 876.26 147.10 881.58 153.17 886.88 159.18 C 882.78 163.73 879.07 168.65 875.67 173.73 C 873.71 176.49 874.66 180.03 874.73 183.14 C 873.87 181.21 873.06 179.27 872.20 177.35 C 871.10 174.96 869.77 172.68 868.42 170.43 C 869.48 169.91 870.41 167.92 868.93 167.33 C 867.36 167.46 867.73 169.56 868.42 170.43 C 865.93 166.74 863.61 162.33 859.08 160.86 C 853.04 157.84 846.03 156.98 839.50 158.63 C 845.34 163.18 851.83 166.84 857.54 171.57 C 861.97 175.25 862.23 181.40 863.69 186.61 C 864.24 186.42 864.80 186.24 865.37 186.05 C 864.30 189.36 863.39 192.73 862.52 196.09 C 862.10 194.95 861.68 193.81 861.25 192.69 C 859.80 194.92 858.49 197.27 857.23 199.61 C 854.94 201.15 852.74 202.82 850.53 204.46 C 850.20 206.73 849.85 209.01 849.48 211.28 C 849.18 209.78 848.89 208.27 848.61 206.77 C 846.74 209.60 844.72 212.34 842.84 215.17 C 836.35 204.80 829.86 194.43 823.56 183.96 C 832.42 191.88 835.51 204.00 843.65 212.49 C 845.46 208.40 850.14 204.56 848.35 199.60 C 843.34 191.65 835.67 185.95 829.08 179.40 C 826.93 179.91 824.76 180.39 822.60 180.80 C 825.69 178.95 829.09 177.66 832.71 177.42 C 831.56 175.83 830.43 174.22 829.36 172.59 C 834.23 178.18 842.31 177.04 848.09 180.90 C 852.11 186.22 853.10 193.21 855.09 199.43 C 856.38 193.91 856.81 188.24 857.54 182.63 C 857.79 185.61 858.28 191.58 858.53 194.57 C 861.00 191.57 864.45 185.58 859.83 183.18 C 851.06 177.21 840.69 174.16 830.68 170.98 C 839.82 171.81 848.21 175.56 856.70 178.73 C 855.02 175.11 853.06 171.58 850.59 168.45 C 844.72 165.78 837.80 165.56 831.63 167.28 C 832.16 166.51 832.71 165.73 833.26 164.97 C 838.18 165.22 843.16 165.54 848.10 165.93 C 844.77 164.13 841.78 161.44 838.04 160.59 C 834.77 161.23 831.82 162.85 828.70 163.93 C 832.88 160.80 837.47 158.12 842.48 156.56 C 848.01 154.86 853.11 157.77 858.30 159.09 C 852.42 154.20 844.32 154.38 837.12 155.28 C 830.25 156.75 825.38 163.45 817.97 163.02 C 811.80 163.80 806.60 160.02 801.43 157.44 C 795.91 153.47 792.24 146.40 785.29 144.68 C 778.81 142.68 772.55 145.90 766.64 148.21 C 772.88 149.28 779.12 150.42 785.36 151.62 C 778.82 151.09 772.33 149.99 765.80 149.81 C 761.85 150.83 758.52 153.42 754.92 155.26 C 759.11 156.17 763.30 157.24 767.33 158.74 C 747.75 155.82 727.46 155.76 708.69 162.61 C 711.57 162.82 714.45 163.08 717.33 163.41 C 714.64 163.79 712.12 164.33 709.48 164.62 C 695.16 167.25 681.60 160.98 667.47 160.58 C 659.90 161.42 653.52 156.84 647.71 152.72 C 653.83 153.80 658.53 158.11 664.29 160.12 C 661.40 157.69 658.13 155.79 654.92 153.83 C 672.11 159.64 690.17 164.64 708.48 163.67 C 695.89 161.10 682.81 160.87 670.60 156.55 C 660.04 154.26 649.88 150.29 640.97 144.14 C 634.34 147.68 628.74 152.86 622.66 157.22 C 642.92 162.08 664.00 163.34 683.78 170.24 C 694.58 173.92 706.13 175.80 717.48 173.76 C 713.90 175.04 710.25 176.53 706.44 176.76 C 690.25 174.47 675.03 168.08 658.93 165.40 C 646.38 163.12 633.78 161.01 621.32 158.33 C 620.93 158.88 620.17 159.99 619.79 160.54 C 632.14 171.11 648.44 174.03 663.10 180.05 C 667.21 181.60 671.43 183.63 675.96 183.12 C 686.30 182.06 696.45 179.61 706.44 176.76 C 696.39 182.81 684.00 182.36 672.82 184.52 C 654.65 189.11 640.43 175.48 625.57 168.00 C 623.64 165.51 621.41 163.27 619.11 161.13 C 617.31 163.63 615.58 166.18 613.88 168.74 C 617.94 171.70 621.64 175.29 626.22 177.47 C 631.37 178.93 637.20 179.38 641.40 183.11 C 632.54 182.42 623.73 178.91 614.85 181.75 C 608.10 183.49 599.99 185.51 597.43 192.76 C 609.14 190.36 621.28 187.24 633.22 189.76 C 644.20 192.44 650.69 202.58 660.47 207.46 C 667.69 211.60 676.53 211.68 684.54 210.36 C 692.78 207.58 700.74 203.15 706.46 196.48 C 711.72 190.14 716.94 183.73 723.03 178.14 C 729.43 178.76 736.25 180.35 741.01 184.96 C 748.92 192.44 757.56 199.09 765.93 206.04 C 770.94 209.83 777.51 209.69 783.48 210.16 C 789.35 201.68 795.50 192.86 804.55 187.48 C 807.84 185.28 811.92 184.85 815.81 185.02 C 823.28 195.65 833.55 204.10 839.82 215.61 C 831.17 206.02 822.69 196.15 815.14 185.65 C 800.67 187.15 792.21 200.34 784.36 210.99 C 777.70 211.34 770.50 211.25 764.93 207.03 C 756.53 200.12 747.95 193.40 739.99 185.97 C 735.62 182.32 730.15 179.00 724.19 180.11 C 716.05 184.64 712.37 193.65 705.60 199.63 C 697.42 206.75 687.28 212.75 676.02 212.09 C 666.72 213.21 658.12 208.46 651.11 202.88 C 645.29 197.85 639.34 192.14 631.45 190.80 C 619.18 189.12 605.46 189.87 594.71 196.64 C 596.81 192.57 596.84 186.37 601.78 184.65 C 609.14 182.05 616.77 180.32 624.35 178.44 C 620.42 175.27 616.40 172.22 612.36 169.22 C 608.98 173.99 605.85 178.98 601.90 183.32 C 605.85 174.72 612.19 167.64 617.87 160.19 C 625.05 153.18 633.29 147.30 641.15 141.07 C 644.42 138.78 648.25 137.50 652.11 136.58 C 648.92 138.63 645.67 140.57 642.54 142.71 C 652.67 152.03 666.62 153.98 679.33 157.63 C 688.20 159.59 697.23 160.83 706.30 161.42 C 710.49 161.30 714.39 159.52 718.46 158.68 C 728.96 156.00 739.85 156.45 750.55 155.28 C 755.04 154.49 758.85 151.74 762.56 149.23 C 750.79 147.07 737.92 144.74 726.47 149.29 C 730.78 150.69 735.19 151.93 739.35 153.81 C 732.17 152.77 724.80 149.10 717.81 152.82 C 719.34 151.74 720.86 150.66 722.36 149.53 C 713.49 148.73 704.26 148.74 695.93 145.18 C 689.30 142.91 683.32 139.23 677.46 135.47 C 673.06 132.35 667.14 133.47 662.22 134.17 C 671.20 141.69 682.37 145.75 693.11 150.05 C 700.51 153.22 708.65 153.69 716.40 155.65 C 709.37 155.43 702.23 155.06 695.63 152.41 C 683.51 147.59 670.79 143.26 660.67 134.74 C 658.03 135.51 655.37 136.22 652.70 136.84 C 654.70 135.76 656.76 134.77 658.82 133.81 C 658.19 132.82 657.55 131.83 656.93 130.85 C 658.98 129.24 661.03 127.63 663.12 126.04 C 661.74 128.21 660.36 130.39 658.99 132.56 C 663.41 132.42 667.83 132.12 672.25 131.76 C 676.40 131.67 679.27 135.51 682.79 137.17 C 693.58 144.44 706.53 147.88 719.50 147.75 C 722.12 147.96 724.79 148.13 727.39 147.57 C 738.10 145.49 749.13 145.70 759.94 146.94 C 767.72 147.68 774.83 143.93 782.25 142.25 C 769.38 138.95 755.40 135.57 742.58 140.61 C 752.71 140.98 762.85 141.02 772.99 141.04 L 773.00 142.00 C 756.31 141.87 739.63 142.36 722.97 141.93 C 717.14 142.56 711.90 139.71 707.18 136.73 C 698.24 130.43 688.84 124.14 682.83 114.73 C 683.72 114.76 684.65 114.80 685.56 114.85 C 686.29 117.61 687.60 120.29 690.02 121.96 C 698.58 128.46 706.35 136.69 716.88 139.95 C 727.28 142.13 738.45 141.65 748.37 137.66 C 738.31 137.22 727.98 136.54 718.69 132.32 C 708.18 127.50 697.07 123.77 687.36 117.39 C 699.34 121.85 710.67 127.89 722.62 132.43 C 734.24 136.75 746.84 136.01 759.01 136.91 C 770.60 136.97 781.48 141.48 792.81 143.32 C 792.49 142.37 792.19 141.42 791.90 140.48 C 794.93 141.59 797.93 142.54 801.05 143.53 C 799.98 143.86 798.92 144.19 797.87 144.53 C 804.61 148.28 811.78 151.36 819.33 153.09 C 816.03 150.77 812.39 149.03 808.78 147.27 C 809.87 147.44 810.96 147.62 812.06 147.80 C 808.55 143.86 805.27 139.70 802.65 135.11 C 805.76 138.70 808.54 142.73 812.38 145.63 C 817.76 149.53 822.54 154.40 829.01 156.57 C 821.17 156.56 813.92 153.02 806.77 150.25 C 801.64 148.26 797.08 143.89 791.25 144.77 C 794.46 147.74 797.59 150.89 801.29 153.30 C 801.02 154.26 800.78 155.22 800.55 156.19 C 801.63 156.58 802.72 156.96 803.82 157.35 C 803.29 156.40 802.76 155.46 802.25 154.52 C 808.15 158.01 814.09 163.69 821.61 161.53 C 828.63 157.85 835.41 152.72 843.98 153.86 C 850.42 152.42 856.22 155.57 860.90 159.58 C 860.08 157.71 859.11 155.81 857.19 154.86 C 852.22 151.98 847.48 148.75 843.20 144.92 C 840.27 146.82 837.26 148.64 834.28 150.43 C 839.64 145.89 845.32 140.07 853.01 140.87 C 857.31 140.52 860.92 143.34 863.50 146.48 C 868.40 152.70 874.60 158.09 878.03 165.38 C 871.30 158.89 866.74 150.41 859.51 144.45 C 855.35 140.85 849.26 142.00 844.52 143.74 C 848.94 148.79 855.13 151.58 860.32 155.67 C 865.20 161.34 869.65 167.39 874.48 173.12 C 877.89 168.46 881.39 163.84 884.48 158.94 C 877.65 151.32 871.27 142.66 861.97 137.89 C 857.39 135.48 852.92 132.24 847.50 132.25 C 845.86 133.71 844.49 135.44 843.04 137.07 C 843.63 135.28 844.24 133.49 844.83 131.69 C 841.26 136.02 837.93 140.55 834.76 145.17 C 828.54 144.86 821.35 146.20 816.10 141.95 C 809.55 138.29 806.05 131.47 800.18 127.07 C 807.91 128.99 810.39 137.53 816.99 141.09 C 821.98 144.43 828.30 143.56 834.00 144.32 C 835.41 141.78 836.83 139.24 838.26 136.71 C 830.74 137.67 824.34 133.69 818.33 129.85 C 818.94 128.98 819.55 128.12 820.17 127.25 C 818.91 127.63 817.66 128.00 816.40 128.36 C 814.02 126.42 811.04 125.22 807.99 124.92 C 803.15 123.83 798.49 122.06 793.64 121.00 C 799.89 124.92 807.25 126.27 814.23 128.38 C 806.90 127.42 799.13 126.48 793.05 121.93 C 786.64 116.97 778.16 120.78 770.75 120.03 C 761.45 118.68 752.10 118.04 742.73 117.73 C 756.11 114.85 770.13 113.66 783.50 117.36 C 773.24 116.53 762.95 116.09 752.67 116.15 C 762.87 117.76 773.22 119.37 783.50 117.36 C 792.48 117.54 800.51 121.74 808.89 124.36 C 808.29 123.20 807.70 122.05 807.11 120.91 C 818.00 127.06 832.85 130.43 843.75 122.70 C 849.22 117.99 857.11 118.25 863.84 118.18 C 875.21 123.05 883.66 132.75 891.12 142.33 C 883.50 136.92 878.53 128.50 870.54 123.48 C 863.20 116.43 851.77 118.83 844.19 124.14 C 837.33 128.83 828.51 127.57 820.72 128.55 C 826.27 132.31 832.81 137.51 839.95 133.81 C 846.21 130.46 852.11 125.25 859.93 126.99 C 871.68 133.42 882.44 142.46 888.36 154.76 C 889.99 152.56 891.72 150.44 893.52 148.37 C 886.65 144.91 881.23 139.34 874.94 135.03 C 871.44 132.65 870.62 128.10 867.63 125.26 C 862.42 124.68 857.21 124.62 852.02 125.08 C 848.23 125.85 845.23 128.49 841.87 130.22 C 844.96 126.71 848.74 123.00 854.01 123.97 C 859.26 124.88 867.58 121.23 870.90 126.97 C 873.31 131.19 876.92 134.44 880.77 137.32 C 885.02 140.55 888.52 145.29 893.94 146.61 C 896.05 145.81 897.88 144.46 899.78 143.24 C 892.38 136.89 883.28 132.09 877.81 123.78 C 885.23 129.63 892.23 135.99 900.02 141.38 C 901.15 140.23 902.29 139.08 903.44 137.94 C 898.24 134.08 892.86 130.50 887.66 126.67 C 888.23 126.43 889.38 125.95 889.95 125.71 C 894.47 129.91 899.36 133.97 905.33 135.90 C 901.52 130.79 895.38 128.59 889.95 125.71 C 885.89 122.96 883.53 118.33 879.52 115.52 C 874.33 112.46 868.36 111.30 862.57 109.99 C 870.72 109.17 879.02 112.36 884.44 118.51 C 890.29 124.93 898.64 128.01 905.60 132.97 C 907.67 130.25 909.68 127.47 911.56 124.61 C 905.12 123.72 897.61 125.01 891.98 121.00 C 886.56 115.47 882.57 108.14 875.47 104.53 C 865.71 101.11 858.19 108.75 851.42 114.38 C 855.20 113.92 859.25 112.10 862.93 114.01 C 871.35 117.32 879.98 120.52 887.45 125.73 C 878.93 123.56 871.21 119.26 863.11 116.02 C 856.44 113.02 850.53 117.77 844.42 119.60 C 837.10 123.14 828.76 122.90 820.82 122.85 C 821.88 122.38 822.96 121.93 824.04 121.47 C 812.18 120.87 802.37 112.86 790.67 111.29 C 792.33 111.11 795.65 110.75 797.31 110.57 C 791.32 108.93 785.29 106.89 779.02 107.07 C 774.37 107.52 770.15 109.74 765.68 110.96 C 772.50 105.72 781.81 104.70 789.96 107.05 C 797.45 108.43 802.81 114.48 810.22 116.14 C 805.83 111.35 801.12 105.83 794.38 104.57 C 777.41 102.69 760.69 106.71 743.95 108.70 C 735.55 108.93 725.81 110.68 718.50 105.47 C 714.85 102.62 711.12 99.45 709.48 95.00 C 709.28 94.54 708.88 93.61 708.68 93.15 C 714.82 90.79 721.06 85.76 727.92 89.24 C 736.88 96.47 749.42 96.63 759.90 92.97 C 769.41 89.62 779.74 90.37 789.34 87.42 M 768.55 91.99 C 759.46 95.04 750.07 96.73 740.48 97.32 C 757.19 100.39 774.28 99.35 791.04 101.90 C 799.90 103.12 806.10 109.93 812.51 115.44 C 823.58 124.23 840.49 123.47 850.64 113.67 C 857.41 106.95 866.10 99.63 876.48 103.54 C 883.58 107.14 887.56 114.48 892.98 120.00 C 898.74 124.19 906.46 122.69 913.07 123.23 C 913.02 122.49 912.92 121.00 912.87 120.26 C 909.89 119.66 906.86 118.99 903.92 118.35 C 899.70 108.93 888.46 107.02 881.08 100.92 C 878.60 99.11 876.86 96.03 873.90 95.07 C 862.05 98.39 853.52 109.55 841.36 111.94 L 840.95 111.99 C 839.10 114.97 836.50 119.62 832.40 118.47 C 822.83 113.03 812.83 107.87 804.93 100.05 C 801.45 97.37 798.28 92.93 793.09 95.11 C 786.79 95.23 780.76 97.11 774.77 98.83 C 776.18 97.91 777.61 97.01 779.04 96.12 C 778.24 96.02 776.64 95.82 775.84 95.72 C 782.17 92.35 789.25 90.75 796.42 92.86 C 804.94 94.72 813.20 98.09 820.59 102.75 C 817.24 97.00 814.38 89.54 807.18 87.86 C 794.10 85.13 781.64 92.13 768.55 91.99 M 718.51 88.96 C 722.88 91.31 727.55 93.08 732.42 94.09 C 728.79 90.35 724.00 87.75 718.51 88.96 M 858.91 97.98 C 852.25 101.48 845.89 105.82 841.36 111.94 C 851.72 106.22 861.25 99.02 872.04 94.09 C 876.17 93.25 878.38 96.78 881.03 98.99 C 885.04 102.84 890.16 105.19 895.27 107.20 C 889.97 100.48 884.64 93.08 876.83 89.18 C 869.10 87.35 864.95 95.03 858.91 97.98 M 717.72 90.41 C 715.87 91.46 712.16 93.55 710.31 94.60 C 715.29 102.11 723.22 109.40 732.99 108.13 C 751.89 107.59 770.42 103.01 789.36 102.38 C 777.87 100.41 766.22 102.50 754.71 101.14 C 749.84 100.42 745.22 98.55 740.48 97.32 C 732.71 95.64 724.93 93.87 717.72 90.41 M 781.58 94.35 C 786.56 94.30 791.52 93.82 796.42 92.86 C 791.45 93.28 786.50 93.65 781.58 94.35 M 805.45 97.70 C 810.96 105.32 819.38 110.10 827.64 114.22 C 823.23 105.85 814.99 98.99 805.45 97.70 M 904.29 116.53 C 903.42 117.76 905.51 119.04 906.32 117.85 C 907.14 116.65 905.06 115.37 904.29 116.53 M 911.53 118.12 C 911.67 118.44 911.96 119.08 912.10 119.40 C 914.69 120.02 912.94 115.94 911.53 118.12 M 634.71 171.23 C 644.77 177.97 655.78 185.25 668.58 183.75 C 657.65 178.67 646.01 175.33 634.71 171.23 M 854.26 170.34 C 855.99 174.72 857.93 179.09 861.14 182.61 C 861.12 177.53 858.32 173.19 854.26 170.34 M 830.54 178.67 C 836.89 184.96 843.72 190.80 849.09 198.01 C 848.99 193.68 848.84 189.33 848.75 185.00 C 842.60 183.00 837.37 178.43 830.54 178.67 M 840.26 179.21 C 842.66 181.17 845.50 182.47 848.54 183.11 C 846.03 181.32 843.20 180.06 840.26 179.21 M 632.75 180.47 C 632.09 182.28 635.89 183.18 636.10 181.28 C 635.64 180.08 633.67 179.48 632.75 180.47 M 850.32 188.43 C 850.15 193.55 850.35 198.66 850.61 203.78 C 854.28 199.20 852.68 193.24 850.32 188.43 Z" />
<path fill="#040203" opacity="1.00" d=" M 532.39 94.11 C 533.01 123.52 534.31 153.10 531.49 182.44 C 531.76 153.67 532.24 124.90 532.05 96.12 C 524.54 101.03 516.04 104.32 509.08 110.10 C 502.92 114.15 498.41 120.29 492.08 124.08 C 484.50 127.30 475.52 126.65 467.98 123.55 C 467.39 128.13 466.66 132.69 466.19 137.28 C 467.25 134.81 468.21 132.31 469.26 129.83 C 468.03 137.24 465.45 144.45 465.29 152.03 C 464.75 162.82 465.01 173.63 464.62 184.43 C 463.12 163.76 464.11 142.98 466.83 122.48 C 457.99 120.36 449.41 117.40 441.06 113.84 C 434.15 110.77 426.39 111.27 419.03 110.61 C 419.06 132.88 419.29 155.18 417.38 177.40 C 416.80 155.33 418.71 133.28 417.97 111.20 C 412.65 111.56 407.34 111.87 402.02 112.14 C 401.96 133.76 402.02 155.38 402.02 176.99 L 400.98 176.99 C 400.96 155.28 401.05 133.57 401.00 111.86 C 394.15 113.26 387.51 115.77 381.62 119.56 C 376.52 122.89 373.16 128.14 368.50 131.98 C 374.60 120.57 386.68 113.03 399.44 111.60 C 412.12 110.80 425.20 108.66 437.78 111.35 C 448.10 115.14 458.29 119.26 468.84 122.42 C 477.93 126.04 489.83 126.85 496.72 118.72 C 506.87 108.15 520.03 101.59 532.39 94.11 Z" />
<path fill="#040203" opacity="1.00" d=" M 697.59 97.96 C 701.46 96.67 705.45 95.74 709.48 95.00 C 705.62 96.38 701.65 97.46 697.59 97.96 Z" />
<path fill="#040203" opacity="1.00" d=" M 684.92 98.05 C 689.15 99.18 693.53 98.91 697.82 99.33 C 700.74 102.02 702.48 106.34 706.81 107.14 C 721.83 110.36 737.15 112.10 752.44 113.61 C 735.66 114.22 718.87 111.34 702.64 107.27 C 707.50 114.04 714.65 118.20 721.51 122.57 C 717.30 122.17 713.39 120.41 709.54 118.80 C 710.22 118.74 711.57 118.62 712.25 118.56 C 706.08 113.08 700.67 106.74 693.80 102.11 C 695.59 102.73 697.37 103.40 699.17 104.06 C 698.88 102.58 698.61 101.11 698.34 99.64 C 692.07 101.01 687.56 105.83 683.12 110.12 C 677.74 115.61 671.14 119.72 665.85 125.30 C 668.05 127.38 670.20 129.51 672.25 131.76 C 666.83 128.47 661.15 124.45 659.29 118.07 C 661.08 120.08 662.84 122.11 664.64 124.12 C 673.44 116.77 682.42 109.62 690.23 101.18 C 688.44 100.17 686.67 99.12 684.92 98.05 Z" />
<path fill="#040203" opacity="1.00" d=" M 513.01 134.00 C 513.16 125.12 514.14 116.28 515.58 107.53 C 515.10 130.86 513.14 154.16 511.44 177.43 C 510.14 162.89 512.88 148.51 513.01 134.00 Z" />
<path fill="#040203" opacity="1.00" d=" M 693.50 108.08 C 699.10 110.87 704.26 114.48 709.12 118.39 C 703.11 116.41 697.94 112.51 693.50 108.08 Z" />
<path fill="#040203" opacity="1.00" d=" M 721.51 122.57 C 736.82 122.26 752.12 121.69 767.39 120.42 C 752.06 123.46 736.33 123.24 720.80 122.61 L 721.51 122.57 Z" />
<path fill="#040203" opacity="1.00" d=" M 774.60 121.35 C 781.99 122.31 789.22 124.15 796.45 125.92 C 788.83 126.54 781.61 123.90 774.60 121.35 Z" />
<path fill="#040203" opacity="1.00" d=" M 720.65 124.15 C 734.70 127.37 748.92 129.66 763.39 129.67 C 748.96 130.58 734.02 130.30 720.65 124.15 Z" />
<path fill="#040203" opacity="1.00" d=" M 756.62 131.80 C 770.34 130.74 785.92 127.01 798.28 135.01 C 784.84 130.54 770.58 130.79 756.62 131.80 Z" />
<path fill="#040203" opacity="1.00" d=" M 367.61 183.42 C 366.67 165.82 366.70 148.18 367.39 130.58 C 368.33 148.17 368.30 165.82 367.61 183.42 Z" />
<path fill="#040203" opacity="1.00" d=" M 676.54 131.38 C 680.35 131.36 687.97 131.33 691.79 131.31 C 696.11 132.97 699.82 135.84 703.64 138.39 C 708.71 141.89 714.93 143.48 719.50 147.75 C 715.05 145.76 710.52 143.91 706.22 141.62 C 700.98 138.78 696.62 134.27 690.75 132.72 C 686.00 132.12 681.28 131.85 676.54 131.38 Z" />
<path fill="#040203" opacity="1.00" d=" M 650.38 135.89 C 652.05 134.14 653.98 132.68 656.07 131.46 C 654.28 133.07 652.38 134.55 650.38 135.89 Z" />
<path fill="#040203" opacity="1.00" d=" M 641.15 141.07 C 637.12 141.55 642.04 137.10 641.15 141.07 Z" />
<path fill="#040203" opacity="1.00" d=" M 799.41 139.19 C 802.53 141.63 805.67 144.16 808.12 147.31 C 805.01 144.83 801.99 142.22 799.41 139.19 Z" />
<path fill="#040203" opacity="1.00" d=" M 278.33 146.02 C 285.84 154.43 293.30 162.89 301.02 171.12 C 293.54 171.03 286.06 170.92 278.59 170.65 C 284.80 170.33 291.02 170.05 297.24 169.81 C 291.85 161.16 282.14 155.62 278.33 146.02 Z" />
<path fill="#040203" opacity="1.00" d=" M 637.61 146.95 C 641.42 148.19 645.05 150.02 648.16 152.58 C 644.22 151.61 640.65 149.61 637.61 146.95 Z" />
<path fill="#040203" opacity="1.00" d=" M 818.50 149.48 C 823.83 149.61 829.15 150.05 834.48 150.57 C 829.13 150.51 823.61 151.44 818.50 149.48 Z" />
<path fill="#040203" opacity="1.00" d=" M 773.92 152.68 C 777.91 157.42 781.50 162.82 787.03 165.92 C 800.32 172.00 815.00 173.60 829.43 174.55 C 816.65 176.11 803.88 173.57 791.93 169.15 C 783.65 167.16 776.77 160.64 773.92 152.68 Z" />
<path fill="#040203" opacity="1.00" d=" M 192.62 179.71 C 198.62 171.26 203.12 161.26 211.57 154.87 C 211.16 155.60 210.34 157.08 209.93 157.82 C 206.64 162.77 202.38 167.02 199.19 172.05 C 191.42 185.02 181.31 196.38 173.17 209.10 C 169.46 214.46 166.43 220.54 161.30 224.74 C 170.79 209.09 181.85 194.48 192.62 179.71 Z" />
<path fill="#040203" opacity="1.00" d=" M 611.62 155.12 C 614.24 155.53 616.83 156.12 619.38 156.88 C 616.75 156.47 614.16 155.88 611.62 155.12 Z" />
<path fill="#040203" opacity="1.00" d=" M 209.93 157.82 C 234.82 162.47 260.31 158.59 285.43 160.36 C 266.96 161.39 248.46 161.02 229.98 161.08 C 223.22 160.93 216.00 161.30 209.93 157.82 Z" />
<path fill="#040203" opacity="1.00" d=" M 617.87 160.19 C 616.32 162.21 614.72 158.11 617.31 158.88 C 617.45 159.21 617.73 159.86 617.87 160.19 Z" />
<path fill="#040203" opacity="1.00" d=" M 719.65 161.33 C 736.99 158.90 754.55 160.23 771.99 160.01 L 771.99 161.02 C 754.54 160.93 737.10 160.94 719.65 161.33 Z" />
<path fill="#040203" opacity="1.00" d=" M 667.47 160.58 C 681.80 166.38 697.41 166.13 712.47 168.62 C 702.40 169.16 692.40 167.30 682.43 166.28 C 677.04 165.61 672.00 163.49 667.47 160.58 Z" />
<path fill="#040203" opacity="1.00" d=" M 791.73 160.89 C 795.11 162.88 798.07 165.57 801.62 167.29 C 811.00 169.50 820.10 165.89 829.37 165.17 C 820.25 167.88 810.73 169.65 801.19 168.81 C 797.28 167.29 794.48 163.91 791.73 160.89 Z" />
<path fill="#040203" opacity="1.00" d=" M 763.73 162.87 C 767.90 168.17 772.35 173.95 779.19 175.82 C 793.55 179.56 808.62 177.86 823.29 177.36 C 807.22 179.78 790.48 180.44 774.67 176.20 C 779.44 180.53 784.77 184.29 791.32 185.33 C 785.94 185.67 780.85 183.75 777.13 179.91 C 771.90 174.93 765.67 170.22 763.73 162.87 Z" />
<path fill="#040203" opacity="1.00" d=" M 709.48 164.62 C 712.60 165.31 715.65 166.30 718.49 167.80 C 715.36 167.12 712.33 166.05 709.48 164.62 Z" />
<path fill="#040203" opacity="1.00" d=" M 719.40 172.23 C 722.89 168.31 727.26 164.32 733.02 164.98 C 745.05 163.73 756.25 169.10 767.35 172.89 C 753.40 170.89 739.09 161.57 725.01 168.42 C 724.57 175.93 715.33 177.30 710.37 181.03 C 711.05 181.12 712.43 181.31 713.11 181.41 C 711.85 184.37 711.21 187.66 709.32 190.29 C 707.03 192.55 703.30 192.55 700.65 194.10 C 696.15 195.76 693.77 200.46 689.57 202.56 C 683.11 203.40 676.66 203.44 670.21 202.67 C 663.37 199.71 657.28 195.19 651.82 190.15 C 648.83 187.29 644.88 185.87 641.10 184.43 C 641.41 184.02 642.03 183.20 642.35 182.78 C 646.41 184.87 651.10 186.32 654.06 190.00 C 661.88 198.54 673.12 204.25 685.04 202.19 C 690.22 202.45 692.97 197.36 696.88 194.91 C 700.09 192.27 704.40 191.81 707.91 189.74 C 709.49 188.06 709.91 185.70 710.72 183.62 C 703.92 184.80 697.86 188.28 691.27 190.11 C 678.79 191.81 665.84 192.00 653.64 188.47 C 665.81 189.41 678.15 191.18 690.30 189.19 C 697.28 186.73 704.59 184.60 710.75 180.37 C 705.18 181.70 699.85 183.89 694.29 185.22 C 688.09 186.12 681.83 185.92 675.60 185.87 C 683.05 185.02 690.83 185.63 698.01 183.02 C 705.40 180.35 714.19 178.66 719.40 172.23 M 720.16 172.16 C 719.24 176.16 724.16 171.24 720.16 172.16 Z" />
<path fill="#040203" opacity="1.00" d=" M 827.30 169.88 C 828.67 169.10 830.38 171.43 829.36 172.59 C 827.93 173.36 826.21 171.07 827.30 169.88 Z" />
<path fill="#040203" opacity="1.00" d=" M 756.39 175.53 C 766.99 179.94 778.30 184.23 785.89 193.30 C 792.24 190.85 797.71 186.59 804.09 184.23 C 808.74 183.24 813.58 183.15 818.35 182.91 C 815.53 183.28 809.90 184.03 807.08 184.41 C 799.35 186.56 793.54 193.45 785.21 193.94 C 781.30 191.19 778.52 186.97 774.10 184.97 C 768.07 182.07 761.73 179.66 756.39 175.53 Z" />
<path fill="#040203" opacity="1.00" d=" M 865.37 186.05 C 867.36 182.94 869.63 180.02 872.20 177.35 C 870.52 180.67 868.28 183.71 865.37 186.05 Z" />
<path fill="#040203" opacity="1.00" d=" M 749.80 179.79 C 760.06 190.28 773.79 197.11 788.29 199.26 C 782.44 198.85 776.41 198.64 771.12 195.85 C 763.19 191.88 753.98 188.23 749.80 179.79 Z" />
<path fill="#040203" opacity="1.00" d=" M 866.69 188.52 C 868.18 187.83 870.03 190.23 869.22 191.57 C 867.66 192.35 865.77 189.90 866.69 188.52 Z" />
<path fill="#040203" opacity="1.00" d=" M 154.37 212.63 C 157.68 221.13 158.99 230.20 160.35 239.17 C 165.97 234.27 171.85 229.62 178.40 226.01 C 173.04 231.84 166.29 236.21 159.78 240.64 C 158.51 231.20 155.90 222.02 154.37 212.63 Z" />
<path fill="#040203" opacity="1.00" d=" M 238.23 243.16 C 239.38 243.08 240.53 243.00 241.68 242.93 C 241.96 251.35 242.16 259.85 244.22 268.06 C 251.10 263.63 252.31 254.81 254.99 247.68 C 253.62 255.40 252.74 267.37 243.07 268.89 C 241.60 260.46 240.99 251.92 240.28 243.41 C 235.12 251.63 233.11 261.24 230.06 270.33 C 230.70 260.77 234.64 251.91 238.23 243.16 Z" />
<path fill="#040203" opacity="1.00" d=" M 458.12 258.14 C 463.39 252.23 469.28 246.70 476.07 242.58 C 470.69 248.38 464.41 253.26 459.11 259.13 C 455.59 263.01 456.39 268.64 455.69 273.48 C 461.27 272.62 466.80 271.40 472.29 270.07 C 467.17 273.85 460.69 273.80 454.61 274.34 C 455.36 268.98 454.06 262.49 458.12 258.14 Z" />
<path fill="#040203" opacity="1.00" d=" M 648.38 254.80 C 651.92 248.95 658.05 245.38 664.23 242.86 C 659.10 247.05 653.59 250.73 648.38 254.80 Z" />
<path fill="#040203" opacity="1.00" d=" M 344.62 271.44 C 343.99 262.16 343.91 252.84 344.38 243.56 C 345.00 252.83 345.09 262.15 344.62 271.44 Z" />
<path fill="#040203" opacity="1.00" d=" M 345.05 245.48 C 346.65 246.36 348.28 247.18 350.01 247.77 C 349.95 254.82 349.91 261.91 348.84 268.90 L 348.76 269.48 C 348.67 263.05 348.80 256.62 348.67 250.20 C 347.43 248.71 346.12 247.02 345.05 245.48 Z" />
<path fill="#040203" opacity="1.00" d=" M 319.55 248.66 C 325.84 248.54 332.15 248.06 338.45 248.34 C 332.14 248.44 325.85 248.93 319.55 248.66 Z" />
<path fill="#040203" opacity="1.00" d=" M 488.25 270.08 C 490.36 262.43 490.47 253.94 494.97 247.14 C 495.73 255.94 496.50 264.76 498.38 273.41 C 497.11 270.40 496.02 267.28 494.93 264.23 C 492.38 265.80 490.21 267.85 488.25 270.08 M 494.41 249.55 C 493.24 254.37 492.11 259.20 491.03 264.05 C 492.38 264.03 493.74 264.00 495.10 263.97 C 494.92 259.16 494.60 254.35 494.41 249.55 Z" />
<path fill="#040203" opacity="1.00" d=" M 511.00 279.32 C 510.91 269.00 511.84 258.69 513.59 248.53 C 514.04 257.74 512.64 266.89 511.91 276.06 C 515.62 273.63 519.32 271.14 523.14 268.87 C 519.26 272.55 515.15 275.95 511.00 279.32 Z" />
<path fill="#040203" opacity="1.00" d=" M 805.34 259.38 C 809.94 255.04 815.53 251.88 821.03 248.81 C 815.25 253.44 809.38 257.92 803.61 262.55 C 804.79 264.26 803.18 268.12 805.33 269.63 C 810.06 272.92 817.00 272.57 820.59 277.53 C 821.63 281.03 819.56 283.90 818.14 286.79 C 813.79 286.34 809.45 285.62 805.49 283.72 C 810.08 283.60 816.28 287.08 819.30 282.27 C 821.35 279.74 818.76 276.86 816.48 275.71 C 811.90 273.49 806.97 272.08 802.31 270.06 C 803.05 266.59 802.33 262.03 805.34 259.38 Z" />
<path fill="#040203" opacity="1.00" d=" M 320.68 268.66 C 321.11 262.30 321.46 255.93 322.32 249.62 C 322.29 255.34 322.12 261.05 322.03 266.78 C 325.10 266.93 328.27 267.10 331.36 267.34 C 327.77 267.72 324.24 268.15 320.68 268.66 Z" />
<path fill="#040203" opacity="1.00" d=" M 787.42 254.92 C 789.76 252.28 792.76 250.38 796.19 249.49 C 793.50 251.65 790.49 253.36 787.42 254.92 Z" />
<path fill="#040203" opacity="1.00" d=" M 273.37 264.38 C 276.82 259.98 279.41 254.98 282.87 250.59 C 280.18 256.10 277.92 262.09 273.43 266.44 C 270.31 269.42 265.78 269.60 261.78 270.48 C 261.48 264.78 260.75 258.99 261.83 253.33 C 262.15 258.80 262.29 264.29 262.84 269.74 C 266.50 268.51 270.82 267.58 273.37 264.38 Z" />
<path fill="#040203" opacity="1.00" d=" M 527.06 275.77 C 526.33 266.23 528.69 255.42 537.57 250.22 C 530.93 256.80 527.58 265.78 527.99 275.10 C 532.60 275.59 536.54 273.56 540.02 270.91 C 538.80 272.52 537.64 274.18 536.54 275.88 C 533.34 275.86 530.23 275.83 527.06 275.77 Z" />
<path fill="#040203" opacity="1.00" d=" M 300.87 265.95 C 303.78 260.76 306.66 255.30 311.43 251.54 C 309.27 257.30 304.79 261.73 301.27 266.63 C 293.43 270.52 294.90 260.09 293.68 256.03 C 292.18 260.19 290.18 264.18 287.33 267.59 C 289.10 262.70 291.38 258.03 293.85 253.46 C 294.66 257.70 295.61 261.93 296.75 266.10 C 298.12 266.05 299.49 266.00 300.87 265.95 Z" />
<path fill="#040203" opacity="1.00" d=" M 381.10 259.08 C 383.78 254.95 388.63 253.17 393.03 251.52 C 388.27 255.54 382.15 258.52 379.36 264.35 C 376.92 268.92 376.56 274.16 375.61 279.16 C 380.09 280.47 384.64 281.64 389.29 282.18 C 384.20 282.90 379.28 281.85 374.51 280.17 C 375.33 272.86 376.13 264.95 381.10 259.08 Z" />
<path fill="#040203" opacity="1.00" d=" M 576.41 281.42 C 576.23 271.44 576.75 261.27 579.55 251.64 C 578.77 261.59 577.80 271.53 576.41 281.42 Z" />
<path fill="#040203" opacity="1.00" d=" M 748.01 253.70 C 752.51 253.53 758.66 251.57 761.01 256.99 C 763.46 259.17 764.73 264.68 761.78 266.81 C 757.85 269.72 752.73 269.58 748.12 270.48 C 748.07 274.11 747.99 281.35 747.95 284.98 L 746.88 285.00 C 746.97 274.56 746.71 264.09 748.01 253.70 M 749.05 254.58 C 748.61 259.53 748.15 264.49 747.88 269.46 C 752.22 268.54 757.14 268.73 760.79 265.82 C 763.42 264.09 761.70 259.68 760.01 258.00 C 758.33 253.12 752.93 255.06 749.05 254.58 Z" />
<path fill="#040203" opacity="1.00" d=" M 764.98 253.01 L 766.02 253.01 C 766.02 263.00 766.02 272.99 766.02 282.99 L 764.98 282.99 C 764.97 272.99 764.97 263.00 764.98 253.01 Z" />
<path fill="#040203" opacity="1.00" d=" M 395.00 274.26 C 397.42 266.80 399.70 258.81 405.69 253.36 C 406.01 262.38 405.94 271.41 405.70 280.43 C 405.30 275.32 405.09 270.21 404.69 265.11 C 398.99 265.06 397.60 270.57 395.00 274.26 M 399.59 264.74 L 405.06 265.00 C 404.92 261.91 404.71 258.73 404.69 255.67 C 402.98 258.69 401.27 261.70 399.59 264.74 Z" />
<path fill="#040203" opacity="1.00" d=" M 548.41 272.45 C 548.72 265.97 549.18 259.24 552.79 253.66 C 551.58 259.31 549.66 264.98 550.06 270.84 C 552.45 272.28 555.10 272.86 557.75 273.78 C 561.06 268.76 564.56 263.80 566.29 257.96 C 565.75 264.62 562.21 276.29 553.23 273.52 C 551.59 273.28 550.00 272.84 548.41 272.45 Z" />
<path fill="#040203" opacity="1.00" d=" M 784.11 282.86 C 783.97 273.10 783.38 263.17 785.39 253.55 C 785.39 256.26 785.13 258.92 785.06 261.64 C 789.05 258.99 793.25 256.72 797.42 254.35 C 793.34 257.37 789.41 260.56 785.17 263.35 C 785.07 269.29 785.05 275.24 785.01 281.18 C 788.78 279.46 792.55 277.77 796.39 276.18 C 792.51 278.79 788.48 281.18 784.11 282.86 Z" />
<path fill="#040203" opacity="1.00" d=" M 649.41 264.35 C 653.87 261.81 658.18 259.01 662.57 256.34 C 658.70 260.43 653.99 263.51 649.17 266.32 C 649.07 269.94 648.87 277.17 648.77 280.78 C 652.64 277.44 657.17 274.93 662.17 273.74 C 657.50 276.65 652.78 279.47 648.19 282.51 C 648.05 274.23 647.96 265.96 648.09 257.70 C 648.42 259.36 649.08 262.68 649.41 264.35 Z" />
<path fill="#040203" opacity="1.00" d=" M 322.50 260.51 C 325.75 259.45 328.92 258.15 332.15 256.97 C 328.97 258.29 325.73 259.39 322.50 260.51 Z" />
<path fill="#040203" opacity="1.00" d=" M 365.69 276.47 C 365.36 269.82 365.01 263.18 365.31 256.53 C 365.62 263.16 365.99 269.82 365.69 276.47 Z" />
<path fill="#040203" opacity="1.00" d=" M 425.07 284.42 C 425.34 275.18 423.71 265.57 426.55 256.59 C 426.54 265.07 426.00 273.53 425.91 282.01 C 429.92 279.87 434.06 278.00 438.16 276.05 C 433.93 279.05 429.58 281.87 425.07 284.42 Z" />
<path fill="#040203" opacity="1.00" d=" M 309.36 269.36 C 308.97 265.46 308.68 261.54 308.22 257.66 C 308.63 261.54 309.17 265.45 309.36 269.36 Z" />
<path fill="#040203" opacity="1.00" d=" M 590.98 279.00 C 589.52 270.85 595.06 264.57 598.39 257.84 C 597.50 264.73 591.92 269.90 591.80 277.00 C 595.32 278.62 599.88 278.57 602.79 275.80 C 607.14 271.90 609.61 266.40 613.27 261.91 C 611.09 266.88 608.63 271.91 604.88 275.89 C 601.35 279.74 595.67 278.57 590.98 279.00 Z" />
<path fill="#040203" opacity="1.00" d=" M 612.41 277.74 C 612.06 267.24 622.97 262.27 631.10 258.62 C 624.74 264.22 614.51 267.25 613.54 276.97 C 617.02 278.66 626.03 279.19 622.90 285.89 C 621.97 289.91 617.27 291.01 614.00 292.50 C 616.69 290.08 620.49 288.38 621.93 284.88 C 623.27 279.69 615.01 279.47 612.41 277.74 Z" />
<path fill="#040203" opacity="1.00" d=" M 697.78 278.05 C 699.76 272.10 701.69 266.05 705.01 260.68 C 704.10 264.60 702.71 268.38 701.22 272.12 L 705.94 271.95 C 705.72 269.53 705.53 267.11 705.42 264.68 C 707.90 271.31 708.96 278.25 709.02 285.31 C 708.28 280.92 707.58 276.56 706.74 272.19 C 702.26 271.81 699.87 274.91 697.78 278.05 Z" />
<path fill="#040203" opacity="1.00" d=" M 720.43 261.20 C 721.05 261.13 722.28 261.01 722.89 260.94 C 723.54 270.12 723.99 279.31 724.44 288.51 C 725.05 288.64 726.26 288.91 726.87 289.05 C 728.79 280.80 730.00 272.42 731.00 264.02 C 731.73 264.03 733.21 264.04 733.94 264.04 C 734.83 271.13 736.00 278.20 736.62 285.32 C 734.93 278.45 734.28 271.36 732.35 264.55 C 730.67 272.05 731.44 280.18 728.50 287.36 C 727.91 289.63 725.44 289.78 723.57 290.39 C 723.04 280.84 722.66 271.28 721.83 261.76 C 718.86 270.09 716.23 278.57 715.19 287.39 C 714.31 278.18 717.93 269.78 720.43 261.20 Z" />
<path fill="#040203" opacity="1.00" d=" M 670.49 263.26 C 673.91 266.29 677.33 269.39 680.88 272.29 C 684.04 268.91 687.17 265.48 690.73 262.49 C 687.93 266.26 685.06 269.96 682.24 273.69 C 686.41 277.35 690.70 280.97 694.03 285.44 C 689.34 282.37 685.34 278.42 681.08 274.81 C 679.75 276.63 678.41 278.44 677.00 280.19 C 677.80 277.94 678.66 275.71 679.48 273.47 C 676.19 270.31 673.00 267.07 670.49 263.26 Z" />
<path fill="#040203" opacity="1.00" d=" M 348.84 268.90 C 352.21 270.27 355.38 272.11 358.27 274.33 C 354.71 273.32 351.48 271.49 348.84 268.90 Z" />
<path fill="#040203" opacity="1.00" d=" M 854.42 385.17 C 855.27 384.78 856.13 384.38 857.00 384.00 C 857.85 384.38 858.71 384.78 859.58 385.17 C 859.56 386.39 859.56 387.60 859.58 388.83 C 858.71 389.21 857.85 389.61 857.00 390.00 C 856.13 389.61 855.27 389.21 854.42 388.83 C 854.42 387.60 854.42 386.39 854.42 385.17 Z" />
<path fill="#040203" opacity="1.00" d=" M 877.99 384.00 C 878.50 384.00 879.51 384.00 880.01 383.99 C 880.01 386.74 880.01 392.25 880.01 395.00 C 879.50 395.00 878.49 395.00 877.99 395.01 C 877.99 392.26 877.99 386.75 877.99 384.00 Z" />
<path fill="#040203" opacity="1.00" d=" M 881.99 384.00 C 882.50 384.00 883.51 384.00 884.01 383.99 C 884.01 386.74 884.01 392.25 884.01 395.00 C 883.50 395.00 882.49 395.00 881.99 395.01 C 881.99 392.26 881.99 386.75 881.99 384.00 Z" />
<path fill="#040203" opacity="1.00" d=" M 889.96 383.89 C 892.28 386.18 894.84 388.20 897.54 390.03 C 898.01 394.91 893.14 394.45 890.17 395.66 C 890.12 392.72 890.01 386.83 889.96 383.89 M 893.27 390.04 C 891.35 390.47 892.19 393.53 894.06 392.98 C 895.99 392.58 895.15 389.38 893.27 390.04 Z" />
<path fill="#040203" opacity="1.00" d=" M 933.07 383.68 C 936.35 387.00 940.57 390.01 940.10 395.44 C 939.32 393.99 937.75 391.10 936.97 389.65 C 935.76 391.61 934.55 393.57 933.33 395.52 C 933.27 392.56 933.14 386.64 933.07 383.68 Z" />
<path fill="#040203" opacity="1.00" d=" M 975.79 389.89 C 977.62 387.62 979.91 385.79 981.92 383.68 C 981.93 386.67 981.94 392.63 981.94 395.62 C 978.84 394.70 972.44 395.66 975.79 389.89 M 977.00 390.00 C 977.00 390.75 977.00 392.25 977.00 393.00 C 977.75 393.00 979.25 393.00 980.00 393.00 C 980.00 392.25 980.00 390.75 980.00 390.00 C 979.25 390.00 977.75 390.00 977.00 390.00 Z" />
<path fill="#040203" opacity="1.00" d=" M 1011.07 383.68 C 1014.35 387.00 1018.57 390.01 1018.10 395.44 C 1017.32 393.99 1015.75 391.10 1014.97 389.65 C 1013.76 391.61 1012.55 393.57 1011.33 395.52 C 1011.27 392.56 1011.14 386.64 1011.07 383.68 Z" />
<path fill="#040203" opacity="1.00" d=" M 1032.45 395.86 C 1030.23 391.15 1031.32 385.90 1035.54 383.02 C 1035.59 387.51 1034.45 391.85 1032.45 395.86 Z" />
<path fill="#040203" opacity="1.00" d=" M 874.17 385.17 C 875.79 384.64 876.34 385.20 875.83 386.83 C 874.19 387.35 873.64 386.79 874.17 385.17 Z" />
<path fill="#040203" opacity="1.00" d=" M 988.17 385.17 C 989.78 384.64 990.34 385.20 989.83 386.83 C 988.19 387.35 987.64 386.79 988.17 385.17 Z" />
<path fill="#040203" opacity="1.00" d=" M 1004.39 386.03 C 1005.36 386.03 1007.28 386.03 1008.24 386.03 C 1008.41 389.35 1008.48 392.67 1008.50 396.00 C 1004.80 393.99 1004.36 389.80 1004.39 386.03 Z" />
<path fill="#040203" opacity="1.00" d=" M 1045.39 386.03 C 1046.36 386.03 1048.28 386.03 1049.24 386.03 C 1049.41 389.35 1049.48 392.67 1049.50 396.00 C 1045.80 393.99 1045.36 389.80 1045.39 386.03 Z" />
<path fill="#040203" opacity="1.00" d=" M 861.11 387.50 C 862.22 388.67 863.30 389.87 864.35 391.11 C 865.13 390.32 865.90 389.51 866.76 388.78 C 867.87 389.37 868.77 390.28 869.73 391.11 C 870.67 389.88 871.63 388.66 872.63 387.48 C 872.00 390.10 871.32 392.72 870.65 395.35 C 869.29 394.48 867.93 393.62 866.62 392.70 C 865.52 393.65 864.40 394.59 863.29 395.53 C 862.50 392.87 861.76 390.20 861.11 387.50 Z" />
<path fill="#040203" opacity="1.00" d=" M 873.96 388.00 C 874.48 388.00 875.52 388.00 876.04 388.00 C 875.98 390.33 875.98 392.66 876.04 395.00 C 875.52 395.00 874.48 395.00 873.96 395.00 C 874.01 392.66 874.01 390.33 873.96 388.00 Z" />
<path fill="#040203" opacity="1.00" d=" M 899.37 387.71 C 901.08 387.93 902.82 388.17 904.56 388.40 C 904.72 389.52 904.88 390.64 905.06 391.77 C 903.69 391.92 902.35 392.08 901.00 392.24 C 902.63 393.01 904.19 393.94 905.65 395.03 C 903.98 394.72 900.63 394.10 898.96 393.79 C 898.69 391.75 899.01 389.71 899.37 387.71 Z" />
<path fill="#040203" opacity="1.00" d=" M 911.37 387.71 C 913.08 387.93 914.82 388.17 916.56 388.40 C 916.72 389.52 916.88 390.64 917.06 391.77 C 915.69 391.92 914.35 392.08 913.00 392.24 C 914.63 393.01 916.19 393.94 917.65 395.03 C 915.98 394.72 912.63 394.10 910.96 393.79 C 910.69 391.75 911.01 389.71 911.37 387.71 Z" />
<path fill="#040203" opacity="1.00" d=" M 918.91 388.13 C 920.66 388.20 922.42 388.28 924.19 388.35 C 924.14 390.42 924.17 392.49 924.31 394.56 C 922.44 394.51 920.58 394.52 918.73 394.60 C 918.89 392.45 918.97 390.29 918.91 388.13 Z" />
<path fill="#040203" opacity="1.00" d=" M 926.39 388.40 C 927.89 388.21 929.40 388.05 930.93 387.91 C 930.96 388.61 931.03 390.01 931.06 390.71 C 930.05 390.51 929.04 390.31 928.05 390.12 C 928.05 390.81 928.05 392.19 928.05 392.88 C 929.04 392.68 930.05 392.48 931.06 392.29 C 931.03 392.99 930.96 394.39 930.93 395.09 C 929.40 394.94 927.89 394.78 926.39 394.60 C 926.39 393.05 926.39 389.95 926.39 388.40 Z" />
<path fill="#040203" opacity="1.00" d=" M 941.41 387.99 C 946.96 386.89 948.65 390.32 948.60 394.90 C 946.94 394.92 943.62 394.96 941.96 394.98 C 941.98 393.70 942.02 392.42 942.06 391.15 C 943.37 391.09 944.69 391.04 946.01 391.00 C 944.46 390.01 942.91 389.03 941.41 387.99 Z" />
<path fill="#040203" opacity="1.00" d=" M 949.96 387.89 C 951.63 388.01 954.96 388.24 956.63 388.35 C 956.63 390.13 956.64 393.68 956.64 395.46 C 955.99 394.00 954.68 391.06 954.03 389.60 C 952.79 391.54 951.60 393.53 950.38 395.49 C 950.28 393.59 950.07 389.79 949.96 387.89 Z" />
<path fill="#040203" opacity="1.00" d=" M 958.08 397.51 C 958.78 392.91 958.11 385.31 966.10 387.91 C 964.71 390.33 962.83 392.41 960.50 393.95 C 962.04 394.25 963.59 394.57 965.16 394.91 C 964.99 395.59 964.66 396.95 964.50 397.63 C 962.89 397.60 959.68 397.54 958.08 397.51 Z" />
<path fill="#040203" opacity="1.00" d=" M 967.37 387.71 C 969.08 387.93 970.82 388.17 972.56 388.40 C 972.71 389.52 972.88 390.64 973.06 391.77 C 971.69 391.92 970.35 392.08 969.00 392.24 C 970.63 393.01 972.19 393.94 973.65 395.03 C 971.98 394.72 968.63 394.10 966.96 393.79 C 966.69 391.75 967.01 389.71 967.37 387.71 Z" />
<path fill="#040203" opacity="1.00" d=" M 987.96 388.00 C 988.48 388.00 989.52 388.00 990.04 388.00 C 989.98 390.33 989.98 392.66 990.04 395.00 C 989.52 395.00 988.48 395.00 987.96 395.00 C 988.01 392.66 988.01 390.33 987.96 388.00 Z" />
<path fill="#040203" opacity="1.00" d=" M 991.96 387.89 C 993.63 388.01 996.96 388.24 998.63 388.35 C 998.63 390.13 998.64 393.68 998.64 395.46 C 997.99 394.00 996.68 391.06 996.03 389.60 C 994.79 391.54 993.60 393.53 992.38 395.49 C 992.28 393.59 992.07 389.79 991.96 387.89 Z" />
<path fill="#040203" opacity="1.00" d=" M 1020.37 387.71 C 1022.07 387.93 1023.82 388.17 1025.56 388.40 C 1025.71 389.52 1025.88 390.64 1026.06 391.77 C 1024.69 391.92 1023.35 392.08 1022.00 392.24 C 1023.63 393.01 1025.19 393.94 1026.65 395.03 C 1024.98 394.72 1021.63 394.10 1019.96 393.79 C 1019.69 391.75 1020.01 389.71 1020.37 387.71 Z" />
<path fill="#040203" opacity="1.00" d=" M 1037.37 387.56 C 1037.90 388.89 1038.96 391.53 1039.49 392.86 C 1040.00 392.87 1041.03 392.89 1041.54 392.90 C 1042.02 391.54 1042.98 388.82 1043.46 387.46 C 1043.61 389.37 1043.91 393.20 1044.06 395.11 C 1042.39 395.00 1039.04 394.76 1037.37 394.64 C 1037.37 392.87 1037.37 389.33 1037.37 387.56 Z" />
<path fill="#040203" opacity="1.00" d=" M 1052.37 387.56 C 1052.90 388.89 1053.96 391.53 1054.49 392.86 C 1055.00 392.87 1056.03 392.89 1056.54 392.90 C 1057.02 391.54 1057.98 388.82 1058.46 387.46 C 1058.61 389.37 1058.91 393.20 1059.06 395.11 C 1057.39 395.00 1054.04 394.76 1052.37 394.64 C 1052.37 392.87 1052.37 389.33 1052.37 387.56 Z" />
<path fill="#040203" opacity="1.00" d=" M 1061.11 395.66 C 1059.48 390.15 1061.21 387.44 1066.31 387.52 C 1064.63 390.27 1062.90 392.98 1061.11 395.66 Z" />
<path fill="#040203" opacity="1.00" d=" M 1067.37 387.71 C 1069.07 387.93 1070.82 388.17 1072.56 388.40 C 1072.71 389.52 1072.88 390.64 1073.06 391.77 C 1071.69 391.92 1070.35 392.08 1069.00 392.24 C 1070.63 393.01 1072.19 393.94 1073.65 395.03 C 1071.98 394.72 1068.63 394.10 1066.96 393.79 C 1066.69 391.75 1067.01 389.71 1067.37 387.71 Z" />
</g>
</svg>
